<svg width="800" height="800" viewBox="0 0 800 800" fill="none" xmlns="http://www.w3.org/2000/svg">
<path d="M729.478 61.8499C725.388 61.8499 721.533 62.6499 717.897 63.9218C717.933 63.2124 718.116 62.5577 718.116 61.8499C718.116 37.7437 697.772 18.2172 672.666 18.2172C647.56 18.2172 627.216 37.7421 627.216 61.8499C627.216 62.5593 627.397 63.2139 627.435 63.9218C623.799 62.6499 619.944 61.8499 615.854 61.8499C597.019 61.8499 581.766 76.503 581.766 94.5748C581.766 112.647 597.019 127.3 615.854 127.3H729.48C748.297 127.3 763.567 112.647 763.567 94.5748C763.567 76.503 748.294 61.8499 729.478 61.8499Z" fill="#72C6EF"/>
<path d="M602.216 98.2092C598.126 98.2092 594.271 99.0092 590.635 100.281C590.671 99.5717 590.854 98.917 590.854 98.2092C590.854 74.1202 570.51 54.5765 545.404 54.5765C520.298 54.5765 499.954 74.1202 499.954 98.2092C499.954 98.9186 500.135 99.5733 500.173 100.281C496.537 99.0092 492.682 98.2092 488.591 98.2092C469.757 98.2092 454.504 112.862 454.504 130.934C454.504 149.006 469.757 163.659 488.591 163.659H602.218C621.035 163.659 636.305 149.006 636.305 130.934C636.305 112.862 621.033 98.2092 602.216 98.2092Z" fill="#72C6EF"/>
<path d="M781.745 781.783H18.1797C8.1453 781.783 0 773.656 0 763.602C0 753.549 8.1453 745.422 18.1797 745.422H781.745C791.781 745.422 799.925 753.549 799.925 763.602C799.925 773.656 791.781 781.783 781.745 781.783Z" fill="white"/>
<path d="M661.211 408.544L528.86 331.279L538.858 325.643C586.127 297.828 746.475 247.287 777.745 288.01C802.108 319.826 711.389 372.912 661.211 408.544Z" fill="#FAA85F"/>
<path d="M185.256 519.626L105.264 576.711L18.1812 490.901L73.8123 454.54L164.531 512.897C170.712 517.261 177.984 519.443 185.256 519.626Z" fill="#FAA85F"/>
<path d="M792.162 276.92C748.548 220.198 568.874 286.846 529.951 309.807L519.952 315.443C519.933 315.443 519.933 315.443 519.916 315.462L497.101 328.388L170.221 201.273C164.367 198.982 157.75 199.892 152.714 203.654L79.9936 258.195C75.3217 261.685 72.6123 267.231 72.7217 273.067C72.8311 278.921 75.7576 284.357 80.5576 287.684L300.32 439.833L196.529 498.629C193.512 500.593 189.839 501.774 186.148 501.465C186.075 501.465 186.021 501.501 185.948 501.483C185.857 501.483 185.784 501.447 185.712 501.447C181.75 501.357 178.04 500.176 174.368 497.612L83.6498 439.254C77.6139 435.344 69.8686 435.418 63.8702 439.327L8.23589 475.683C3.6359 478.683 0.635903 483.629 0.090592 489.082C-0.454719 494.554 1.50934 499.99 5.41714 503.844L92.4998 589.636L92.5185 589.655L114.008 610.763C133.587 629.961 163.003 636.178 192.909 636.178C243.068 636.178 294.59 618.671 303.426 615.525C306.317 614.453 374.474 589.019 397.563 578.493C474.502 543.205 652.158 436.451 659.685 431.924C660.321 431.543 667.811 426.034 671.466 423.543C671.521 423.507 671.539 423.452 671.575 423.434C671.63 423.398 671.685 423.379 671.739 423.343C679.211 418.034 687.592 412.345 696.355 406.38C753.531 367.493 794.4 337.568 799.472 306.099C801.198 295.518 798.672 285.429 792.162 276.92ZM121.989 272.157L166.439 238.815L456.249 351.513L335.441 419.943L121.989 272.157ZM73.8842 476.193L148.004 523.861L107.136 553.022L46.9952 493.755L73.8842 476.193ZM382.42 545.441C360.53 555.44 291.41 581.238 290.973 581.402C234.432 601.472 164.184 609.091 139.459 584.838L133.459 578.93L191.509 537.516C200.326 536.771 208.853 534.026 215.489 529.626L528.733 352.24L626.578 409.362C582.11 435.834 445.14 516.68 382.42 545.441ZM675.919 376.329C670.556 379.984 665.321 383.529 660.339 386.965L566.166 332.006C628.36 303.409 746.077 276.629 763.62 299.573C767.383 314.135 698.534 360.966 675.919 376.329Z" fill="white"/>
</svg>
