<?xml version="1.0" encoding="UTF-8"?>
<!DOCTYPE svg PUBLIC "-//W3C//DTD SVG 1.1//EN" "http://www.w3.org/Graphics/SVG/1.1/DTD/svg11.dtd">
<svg xmlns="http://www.w3.org/2000/svg" version="1.1" width="225px" height="225px" style="shape-rendering:geometricPrecision; text-rendering:geometricPrecision; image-rendering:optimizeQuality; fill-rule:evenodd; clip-rule:evenodd" xmlns:xlink="http://www.w3.org/1999/xlink">
<g><path style="opacity:1" fill="#033194" d="M -0.5,-0.5 C 74.5,-0.5 149.5,-0.5 224.5,-0.5C 224.5,74.5 224.5,149.5 224.5,224.5C 149.5,224.5 74.5,224.5 -0.5,224.5C -0.5,149.5 -0.5,74.5 -0.5,-0.5 Z"/></g>
<g><path style="opacity:1" fill="#958f57" d="M 49.5,41.5 C 51.6413,40.8367 53.9746,40.5034 56.5,40.5C 60.1411,40.3148 63.4744,40.9814 66.5,42.5C 60.8477,41.9682 55.181,41.6349 49.5,41.5 Z"/></g>
<g><path style="opacity:1" fill="#2e3e7f" d="M 111.5,60.5 C 111.5,61.1667 111.5,61.8333 111.5,62.5C 110.761,62.369 110.094,62.5357 109.5,63C 111.405,63.8261 111.739,64.9928 110.5,66.5C 109.201,65.91 108.368,64.91 108,63.5C 106.07,65.0771 106.237,66.4104 108.5,67.5C 106.167,67.5 103.833,67.5 101.5,67.5C 103.931,66.2591 103.931,65.0924 101.5,64C 101.833,63.6667 102.167,63.3333 102.5,63C 99.1832,62.5017 95.8499,62.335 92.5,62.5C 92.6107,61.8826 92.944,61.3826 93.5,61C 99.4908,60.5005 105.491,60.3338 111.5,60.5 Z"/></g>
<g><path style="opacity:1" fill="#bcab4d" d="M 131.5,64.5 C 141.468,65.3961 151.468,65.7295 161.5,65.5C 160.432,66.4345 159.099,66.7678 157.5,66.5C 149.493,66.6664 141.493,66.4997 133.5,66C 132.584,65.7216 131.918,65.2216 131.5,64.5 Z"/></g>
<g><path style="opacity:1" fill="#f8c81b" d="M 170.5,52.5 C 172.81,53.1638 175.31,53.4971 178,53.5C 180.929,53.4752 183.429,52.8086 185.5,51.5C 188.833,50.8333 192.167,50.1667 195.5,49.5C 195.5,50.8333 195.5,52.1667 195.5,53.5C 189.665,55.633 183.998,58.2997 178.5,61.5C 172.825,63.0028 167.158,64.3362 161.5,65.5C 151.468,65.7295 141.468,65.3961 131.5,64.5C 127.538,63.6245 123.538,62.9578 119.5,62.5C 117.365,60.631 114.698,59.9644 111.5,60.5C 105.491,60.3338 99.4908,60.5005 93.5,61C 92.944,61.3826 92.6107,61.8826 92.5,62.5C 74.8201,66.4405 65.6534,77.4405 65,95.5C 68.3333,98.1667 71.6667,100.833 75,103.5C 81.1578,122.316 92.6578,136.983 109.5,147.5C 112.663,153.158 115.829,158.824 119,164.5C 121.104,172.332 123.937,179.665 127.5,186.5C 128.092,189.127 128.425,191.794 128.5,194.5C 127.5,194.5 126.5,194.5 125.5,194.5C 119.426,182.013 112.092,170.346 103.5,159.5C 91.2576,149.423 78.591,139.923 65.5,131C 62.4679,128.25 59.4679,125.416 56.5,122.5C 52.1965,114.038 47.6965,105.705 43,97.5C 42.0055,90.8463 39.8389,84.6796 36.5,79C 36.8333,77.8333 37.1667,76.6667 37.5,75.5C 43.741,72.95 49.0743,69.1166 53.5,64C 51.601,61.1965 48.9343,60.0298 45.5,60.5C 45.3343,56.1539 45.501,51.8206 46,47.5C 46.4238,44.9746 47.5905,42.9746 49.5,41.5C 55.181,41.6349 60.8477,41.9682 66.5,42.5C 67.4584,42.9528 68.2917,43.6195 69,44.5C 69.7736,48.8118 69.2736,52.9785 67.5,57C 67.8333,57.5 68.1667,58 68.5,58.5C 76.0853,54.2489 82.4186,48.5822 87.5,41.5C 92.2646,38.1233 97.5979,36.4566 103.5,36.5C 117.907,38.5458 131.907,42.0458 145.5,47C 154.04,48.6203 162.373,50.4537 170.5,52.5 Z"/></g>
<g><path style="opacity:1" fill="#8b873b" d="M 111.5,60.5 C 114.698,59.9644 117.365,60.631 119.5,62.5C 116.833,62.5 114.167,62.5 111.5,62.5C 111.5,61.8333 111.5,61.1667 111.5,60.5 Z"/></g>
<g><path style="opacity:1" fill="#b8aa80" d="M 185.5,51.5 C 183.429,52.8086 180.929,53.4752 178,53.5C 175.31,53.4971 172.81,53.1638 170.5,52.5C 175.562,52.7257 180.562,52.3924 185.5,51.5 Z"/></g>
<g><path style="opacity:1" fill="#f2c623" d="M 136.5,153.5 C 135.057,154.335 134.057,155.668 133.5,157.5C 132.211,162.737 130.377,167.737 128,172.5C 127.042,170.801 126.542,168.967 126.5,167C 126.914,160.008 128.08,153.175 130,146.5C 133.719,136.061 137.719,125.728 142,115.5C 147.114,106.665 151.947,97.6654 156.5,88.5C 158.624,82.9196 161.29,77.5863 164.5,72.5C 174.041,69.8815 176.874,73.2148 173,82.5C 170.744,87.0896 168.577,91.7562 166.5,96.5C 160.57,107.252 153.904,117.585 146.5,127.5C 142.57,135.961 139.236,144.627 136.5,153.5 Z"/></g>
<g><path style="opacity:1" fill="#133390" d="M 92.5,62.5 C 95.8499,62.335 99.1832,62.5017 102.5,63C 102.167,63.3333 101.833,63.6667 101.5,64C 103.931,65.0924 103.931,66.2591 101.5,67.5C 95.0765,77.1005 91.4098,87.7672 90.5,99.5C 88.9666,101.634 88.2999,104.134 88.5,107C 88.5056,109.033 88.8389,110.866 89.5,112.5C 90.5,112.5 91.5,112.5 92.5,112.5C 94.117,109.811 95.117,106.811 95.5,103.5C 97.5546,98.7087 99.0546,93.7087 100,88.5C 104.532,82.1137 107.366,75.1137 108.5,67.5C 106.237,66.4104 106.07,65.0771 108,63.5C 108.368,64.91 109.201,65.91 110.5,66.5C 111.739,64.9928 111.405,63.8261 109.5,63C 110.094,62.5357 110.761,62.369 111.5,62.5C 114.167,62.5 116.833,62.5 119.5,62.5C 123.538,62.9578 127.538,63.6245 131.5,64.5C 131.918,65.2216 132.584,65.7216 133.5,66C 141.493,66.4997 149.493,66.6664 157.5,66.5C 157.03,67.6935 156.03,68.3601 154.5,68.5C 149.455,69.0888 144.455,69.9221 139.5,71C 140.094,71.4643 140.761,71.631 141.5,71.5C 141.611,72.1174 141.944,72.6174 142.5,73C 141.354,73.6449 140.354,74.4783 139.5,75.5C 133.096,86.0834 127.763,97.0834 123.5,108.5C 119.808,115.562 117.475,123.229 116.5,131.5C 116.795,133.735 116.461,135.735 115.5,137.5C 114.517,141.298 114.183,145.298 114.5,149.5C 115.833,149.5 117.167,149.5 118.5,149.5C 119.21,145.749 120.21,142.082 121.5,138.5C 121.338,136.473 121.505,134.473 122,132.5C 125.407,124.686 129.074,117.019 133,109.5C 139.285,101.107 144.785,92.4403 149.5,83.5C 149.357,85.2624 149.691,86.9291 150.5,88.5C 149.038,88.0646 148.038,88.898 147.5,91C 148.852,92.9644 149.686,95.1311 150,97.5C 151.495,95.8904 151.661,94.2237 150.5,92.5C 151.194,89.9124 152.36,87.579 154,85.5C 154.236,87.1193 155.069,88.1193 156.5,88.5C 151.947,97.6654 147.114,106.665 142,115.5C 137.719,125.728 133.719,136.061 130,146.5C 128.08,153.175 126.914,160.008 126.5,167C 126.542,168.967 127.042,170.801 128,172.5C 130.377,167.737 132.211,162.737 133.5,157.5C 134.057,155.668 135.057,154.335 136.5,153.5C 136.199,156.57 135.199,159.403 133.5,162C 134.984,164.529 134.65,166.696 132.5,168.5C 133.415,169.328 134.081,170.328 134.5,171.5C 133.892,174.145 133.392,176.812 133,179.5C 131.989,180.337 130.822,180.67 129.5,180.5C 129.992,182.841 131.159,184.841 133,186.5C 133.667,188.167 133.667,189.833 133,191.5C 131.579,188.991 129.912,186.657 128,184.5C 127.536,185.094 127.369,185.761 127.5,186.5C 123.937,179.665 121.104,172.332 119,164.5C 115.829,158.824 112.663,153.158 109.5,147.5C 92.6578,136.983 81.1578,122.316 75,103.5C 71.6667,100.833 68.3333,98.1667 65,95.5C 65.6534,77.4405 74.8201,66.4405 92.5,62.5 Z"/></g>
<g><path style="opacity:1" fill="#6b6f70" d="M 95.5,103.5 C 95.117,106.811 94.117,109.811 92.5,112.5C 92.5567,108.971 93.5567,105.971 95.5,103.5 Z"/></g>
<g><path style="opacity:1" fill="#9f9a60" d="M 90.5,99.5 C 90.7693,103.931 90.436,108.265 89.5,112.5C 88.8389,110.866 88.5056,109.033 88.5,107C 88.2999,104.134 88.9666,101.634 90.5,99.5 Z"/></g>
<g><path style="opacity:1" fill="#f1c624" d="M 107.5,121.5 C 104.925,123.845 103.925,126.845 104.5,130.5C 103.5,130.5 102.5,130.5 101.5,130.5C 101.5,126.833 101.5,123.167 101.5,119.5C 104.64,111.087 107.64,102.421 110.5,93.5C 112.511,86.1499 115.511,79.1499 119.5,72.5C 120.559,71.3036 121.893,70.637 123.5,70.5C 125.135,71.0463 126.801,71.3796 128.5,71.5C 128.603,74.2186 128.269,76.8853 127.5,79.5C 119.875,93.1009 113.208,107.101 107.5,121.5 Z"/></g>
<g><path style="opacity:1" fill="#b2a05d" d="M 110.5,93.5 C 107.64,102.421 104.64,111.087 101.5,119.5C 102.766,110.062 105.766,101.395 110.5,93.5 Z"/></g>
<g><path style="opacity:1" fill="#ebc32e" d="M 101.5,67.5 C 103.833,67.5 106.167,67.5 108.5,67.5C 107.366,75.1137 104.532,82.1137 100,88.5C 99.0546,93.7087 97.5546,98.7087 95.5,103.5C 93.5567,105.971 92.5567,108.971 92.5,112.5C 91.5,112.5 90.5,112.5 89.5,112.5C 90.436,108.265 90.7693,103.931 90.5,99.5C 91.4098,87.7672 95.0765,77.1005 101.5,67.5 Z"/></g>
<g><path style="opacity:1" fill="#f3c722" d="M 141.5,71.5 C 144.788,71.073 147.788,71.7397 150.5,73.5C 150.833,74.1667 151.167,74.8333 151.5,75.5C 150.238,78.022 149.571,80.6887 149.5,83.5C 144.785,92.4403 139.285,101.107 133,109.5C 129.074,117.019 125.407,124.686 122,132.5C 121.505,134.473 121.338,136.473 121.5,138.5C 120.069,138.881 119.236,139.881 119,141.5C 118.667,141.167 118.333,140.833 118,140.5C 117.667,143.167 117.333,145.833 117,148.5C 115.585,145.042 115.085,141.375 115.5,137.5C 116.461,135.735 116.795,133.735 116.5,131.5C 119.203,124.023 121.536,116.356 123.5,108.5C 127.763,97.0834 133.096,86.0834 139.5,75.5C 140.354,74.4783 141.354,73.6449 142.5,73C 141.944,72.6174 141.611,72.1174 141.5,71.5 Z"/></g>
<g><path style="opacity:1" fill="#b29f58" d="M 123.5,108.5 C 121.536,116.356 119.203,124.023 116.5,131.5C 117.475,123.229 119.808,115.562 123.5,108.5 Z"/></g>
<g><path style="opacity:1" fill="#3c447e" d="M 107.5,121.5 C 107.472,123.582 108.139,125.416 109.5,127C 107.195,128.134 105.195,129.634 103.5,131.5C 102.584,131.457 101.917,131.124 101.5,130.5C 102.5,130.5 103.5,130.5 104.5,130.5C 103.925,126.845 104.925,123.845 107.5,121.5 Z"/></g>
<g><path style="opacity:1" fill="#86854c" d="M 115.5,137.5 C 115.085,141.375 115.585,145.042 117,148.5C 117.333,145.833 117.667,143.167 118,140.5C 118.333,140.833 118.667,141.167 119,141.5C 119.236,139.881 120.069,138.881 121.5,138.5C 120.21,142.082 119.21,145.749 118.5,149.5C 117.167,149.5 115.833,149.5 114.5,149.5C 114.183,145.298 114.517,141.298 115.5,137.5 Z"/></g>
</svg>
