<svg width="24" height="24" viewBox="0 0 24 24" fill="none" xmlns="http://www.w3.org/2000/svg">
<g clip-path="url(#clip0_2425_6)">
<path d="M12.004 0C5.375 0 0 5.373 0 12.002C0 18.631 5.375 24 12.004 24C18.63 24 24 18.632 24 12.002C24 5.372 18.631 0 12.004 0ZM11.129 5.739H12.834L12 7.825H10.832C9.577 7.825 8.771 7.829 8.336 7.973C7.913 8.105 7.601 8.263 7.43 8.513C7.273 8.715 7.22 8.99 7.22 9.229C7.22 9.479 7.247 9.716 7.495 10.035C7.8 10.34 8.304 10.734 9.292 11.342C11.262 12.571 11.844 13.546 11.844 14.829C11.844 16.919 9.874 18.913 6.572 18.913C5.58 18.913 4.195 18.767 3.611 18.581L3.304 18.491C3.424 18.094 3.816 16.998 3.989 16.535L4.299 16.613C4.947 16.773 5.963 16.865 6.637 16.865C8.569 16.865 9.319 15.993 9.319 15.227C9.319 14.527 8.937 14.143 7.02 12.981C5.224 11.871 4.603 10.905 4.603 9.572C4.603 7.972 5.633 6.754 7.125 6.173C8.013 5.843 9.239 5.739 11.129 5.739ZM14.088 5.739H19.959C20.235 5.739 20.288 5.934 20.182 6.146C19.798 7.098 16.175 16.174 16.175 16.174H13.754C13.754 16.174 16.615 8.883 17.09 7.797C16.76 7.797 16.509 7.825 15.2 7.825H13.253L14.088 5.739Z" fill="#A7DC78"/>
</g>
<defs>
<clipPath id="clip0_2425_6">
<rect width="24" height="24" fill="white"/>
</clipPath>
</defs>
</svg>
