<?xml version="1.0" encoding="UTF-8"?>
<!DOCTYPE svg PUBLIC "-//W3C//DTD SVG 1.1//EN" "http://www.w3.org/Graphics/SVG/1.1/DTD/svg11.dtd">
<svg xmlns="http://www.w3.org/2000/svg" version="1.1" width="260px" height="194px" style="shape-rendering:geometricPrecision; text-rendering:geometricPrecision; image-rendering:optimizeQuality; fill-rule:evenodd; clip-rule:evenodd" xmlns:xlink="http://www.w3.org/1999/xlink">
<g><path style="opacity:1" fill="#fefefe" d="M -0.5,-0.5 C 51.1667,-0.5 102.833,-0.5 154.5,-0.5C 154.167,0.166667 153.833,0.833333 153.5,1.5C 102.453,64.5447 51.7867,127.878 1.5,191.5C 0.833333,191.833 0.166667,192.167 -0.5,192.5C -0.5,128.167 -0.5,63.8333 -0.5,-0.5 Z"/></g>
<g><path style="opacity:1" fill="#d32841" d="M 154.5,-0.5 C 189.5,-0.5 224.5,-0.5 259.5,-0.5C 259.5,-0.166667 259.5,0.166667 259.5,0.5C 259.167,0.5 258.833,0.5 258.5,0.5C 223.457,0.180038 188.457,0.513371 153.5,1.5C 153.833,0.833333 154.167,0.166667 154.5,-0.5 Z"/></g>
<g><path style="opacity:1" fill="#cf0b2b" d="M 258.5,0.5 C 243.465,65.0141 227.798,129.347 211.5,193.5C 211.167,193.5 210.833,193.5 210.5,193.5C 140.833,192.833 71.1667,192.167 1.5,191.5C 51.7867,127.878 102.453,64.5447 153.5,1.5C 188.457,0.513371 223.457,0.180038 258.5,0.5 Z"/></g>
<g><path style="opacity:1" fill="#fefdfd" d="M 258.5,0.5 C 258.833,0.5 259.167,0.5 259.5,0.5C 259.5,64.8333 259.5,129.167 259.5,193.5C 243.5,193.5 227.5,193.5 211.5,193.5C 227.798,129.347 243.465,65.0141 258.5,0.5 Z"/></g>
<g><path style="opacity:1" fill="#fefefe" d="M 143.5,37.5 C 155.167,37.5 166.833,37.5 178.5,37.5C 178.171,51.3435 178.504,65.0102 179.5,78.5C 193.167,78.5 206.833,78.5 220.5,78.5C 220.5,90.5 220.5,102.5 220.5,114.5C 206.833,114.5 193.167,114.5 179.5,114.5C 179.5,128.167 179.5,141.833 179.5,155.5C 167.678,156.495 155.678,156.828 143.5,156.5C 143.5,142.5 143.5,128.5 143.5,114.5C 130.01,113.504 116.344,113.171 102.5,113.5C 102.5,102.167 102.5,90.8333 102.5,79.5C 116.344,79.829 130.01,79.4957 143.5,78.5C 143.5,64.8333 143.5,51.1667 143.5,37.5 Z"/></g>
<g><path style="opacity:1" fill="#f3d0d4" d="M 143.5,37.5 C 155.322,36.5049 167.322,36.1716 179.5,36.5C 179.5,50.5 179.5,64.5 179.5,78.5C 178.504,65.0102 178.171,51.3435 178.5,37.5C 166.833,37.5 155.167,37.5 143.5,37.5 Z"/></g>
<g><path style="opacity:1" fill="#fae9ec" d="M 143.5,78.5 C 130.01,79.4957 116.344,79.829 102.5,79.5C 102.5,90.8333 102.5,102.167 102.5,113.5C 116.344,113.171 130.01,113.504 143.5,114.5C 129.5,114.5 115.5,114.5 101.5,114.5C 101.5,102.5 101.5,90.5 101.5,78.5C 115.5,78.5 129.5,78.5 143.5,78.5 Z"/></g>
<g><path style="opacity:1" fill="#cc0010" d="M 220.5,114.5 C 207.344,115.496 194.01,115.829 180.5,115.5C 180.829,129.01 180.496,142.344 179.5,155.5C 179.5,141.833 179.5,128.167 179.5,114.5C 193.167,114.5 206.833,114.5 220.5,114.5 Z"/></g>
<g><path style="opacity:1" fill="#d32741" d="M 1.5,191.5 C 71.1667,192.167 140.833,192.833 210.5,193.5C 140.167,193.5 69.8333,193.5 -0.5,193.5C -0.5,193.167 -0.5,192.833 -0.5,192.5C 0.166667,192.167 0.833333,191.833 1.5,191.5 Z"/></g>
</svg>
