<?xml version="1.0" encoding="UTF-8"?>
<!DOCTYPE svg PUBLIC "-//W3C//DTD SVG 1.1//EN" "http://www.w3.org/Graphics/SVG/1.1/DTD/svg11.dtd">
<svg xmlns="http://www.w3.org/2000/svg" version="1.1" width="600px" height="600px" style="shape-rendering:geometricPrecision; text-rendering:geometricPrecision; image-rendering:optimizeQuality; fill-rule:evenodd; clip-rule:evenodd" xmlns:xlink="http://www.w3.org/1999/xlink">
<g><path style="opacity:1" fill="#fefefe" d="M -0.5,-0.5 C 199.5,-0.5 399.5,-0.5 599.5,-0.5C 599.5,199.5 599.5,399.5 599.5,599.5C 399.5,599.5 199.5,599.5 -0.5,599.5C -0.5,399.5 -0.5,199.5 -0.5,-0.5 Z"/></g>
<g><path style="opacity:1" fill="#c90219" d="M 325.5,30.5 C 330.269,31.889 335.269,32.5557 340.5,32.5C 435.202,50.0895 503.702,102.089 546,188.5C 556.57,211.447 563.403,235.447 566.5,260.5C 566.444,265.731 567.111,270.731 568.5,275.5C 574.06,379.428 535.06,461.928 451.5,523C 398.035,557.867 339.368,573.034 275.5,568.5C 270.731,567.111 265.731,566.444 260.5,566.5C 186.437,554.734 126.937,519.068 82,459.5C 81.3123,458.668 81.479,458.002 82.5,457.5C 227.965,415.406 373.631,373.573 519.5,332C 521.602,330.267 521.935,328.267 520.5,326C 517.667,325.833 514.833,325.667 512,325.5C 453.169,329.867 394.336,333.7 335.5,337C 358.41,315.683 372.243,289.516 377,258.5C 378.886,231.931 372.886,207.264 359,184.5C 345.017,163.707 328.184,145.541 308.5,130C 267.345,99.9203 222.345,76.9203 173.5,61C 200.972,45.7871 230.306,36.2871 261.5,32.5C 266.731,32.5557 271.731,31.889 276.5,30.5C 292.836,29.2069 309.17,29.2069 325.5,30.5 Z"/></g>
<g><path style="opacity:1" fill="#f2b6bb" d="M 325.5,30.5 C 330.731,30.4443 335.731,31.111 340.5,32.5C 335.269,32.5557 330.269,31.889 325.5,30.5 Z"/></g>
<g><path style="opacity:1" fill="#db565e" d="M 276.5,30.5 C 271.731,31.889 266.731,32.5557 261.5,32.5C 266.269,31.111 271.269,30.4443 276.5,30.5 Z"/></g>
<g><path style="opacity:1" fill="#c90219" d="M 229.5,202.5 C 229.444,207.731 230.111,212.731 231.5,217.5C 239.99,335.438 187.657,410.605 74.5,443C 73.0563,443.781 71.723,443.614 70.5,442.5C 39.6534,391.443 26.3201,336.11 30.5,276.5C 31.889,271.731 32.5557,266.731 32.5,261.5C 45.3783,179.692 86.3783,116.359 155.5,71.5C 196.97,105.416 221.636,149.082 229.5,202.5 Z"/></g>
<g><path style="opacity:1" fill="#d84b51" d="M 229.5,202.5 C 230.889,207.269 231.556,212.269 231.5,217.5C 230.111,212.731 229.444,207.731 229.5,202.5 Z"/></g>
<g><path style="opacity:1" fill="#de5e67" d="M 566.5,260.5 C 567.889,265.269 568.556,270.269 568.5,275.5C 567.111,270.731 566.444,265.731 566.5,260.5 Z"/></g>
<g><path style="opacity:1" fill="#dc5a63" d="M 32.5,261.5 C 32.5557,266.731 31.889,271.731 30.5,276.5C 30.4443,271.269 31.111,266.269 32.5,261.5 Z"/></g>
<g><path style="opacity:1" fill="#dc5860" d="M 260.5,566.5 C 265.731,566.444 270.731,567.111 275.5,568.5C 270.269,568.556 265.269,567.889 260.5,566.5 Z"/></g>
</svg>
